<mxfile host="65bd71144e">
    <diagram id="53ANHARA9S0Ow-Dk2lcz" name="第 1 页">
        <mxGraphModel dx="2031" dy="929" grid="1" gridSize="10" guides="1" tooltips="1" connect="1" arrows="1" fold="1" page="1" pageScale="1" pageWidth="827" pageHeight="1169" math="0" shadow="0">
            <root>
                <mxCell id="0"/>
                <mxCell id="1" parent="0"/>
                <mxCell id="Jp9aZT3gNlFX39lGnrzM-26" style="edgeStyle=none;sketch=1;html=1;entryX=0.5;entryY=0;entryDx=0;entryDy=0;fontSize=14;" edge="1" parent="1" source="Jp9aZT3gNlFX39lGnrzM-1" target="Jp9aZT3gNlFX39lGnrzM-2">
                    <mxGeometry relative="1" as="geometry"/>
                </mxCell>
                <mxCell id="Jp9aZT3gNlFX39lGnrzM-27" style="edgeStyle=none;sketch=1;html=1;exitX=0.25;exitY=1;exitDx=0;exitDy=0;entryX=0.5;entryY=0;entryDx=0;entryDy=0;fontSize=14;" edge="1" parent="1" source="Jp9aZT3gNlFX39lGnrzM-1" target="Jp9aZT3gNlFX39lGnrzM-3">
                    <mxGeometry relative="1" as="geometry"/>
                </mxCell>
                <mxCell id="Jp9aZT3gNlFX39lGnrzM-28" style="edgeStyle=none;sketch=1;html=1;exitX=0.75;exitY=1;exitDx=0;exitDy=0;entryX=0.5;entryY=0;entryDx=0;entryDy=0;fontSize=14;" edge="1" parent="1" source="Jp9aZT3gNlFX39lGnrzM-1" target="Jp9aZT3gNlFX39lGnrzM-4">
                    <mxGeometry relative="1" as="geometry"/>
                </mxCell>
                <mxCell id="Jp9aZT3gNlFX39lGnrzM-30" style="edgeStyle=none;sketch=1;html=1;exitX=1;exitY=1;exitDx=0;exitDy=0;entryX=0.5;entryY=0;entryDx=0;entryDy=0;fontSize=14;" edge="1" parent="1" source="Jp9aZT3gNlFX39lGnrzM-1" target="Jp9aZT3gNlFX39lGnrzM-5">
                    <mxGeometry relative="1" as="geometry"/>
                </mxCell>
                <mxCell id="Jp9aZT3gNlFX39lGnrzM-1" value="企业认证" style="rounded=0;whiteSpace=wrap;html=1;sketch=1;fontSize=14;" vertex="1" parent="1">
                    <mxGeometry x="-457" y="20" width="120" height="60" as="geometry"/>
                </mxCell>
                <mxCell id="Jp9aZT3gNlFX39lGnrzM-6" style="edgeStyle=none;sketch=1;html=1;entryX=0;entryY=0.5;entryDx=0;entryDy=0;fontSize=14;" edge="1" parent="1" source="Jp9aZT3gNlFX39lGnrzM-2" target="Jp9aZT3gNlFX39lGnrzM-3">
                    <mxGeometry relative="1" as="geometry"/>
                </mxCell>
                <mxCell id="Jp9aZT3gNlFX39lGnrzM-12" style="edgeStyle=none;sketch=1;html=1;exitX=0.5;exitY=1;exitDx=0;exitDy=0;entryX=0.5;entryY=1;entryDx=0;entryDy=0;fontSize=14;" edge="1" parent="1" source="Jp9aZT3gNlFX39lGnrzM-2" target="Jp9aZT3gNlFX39lGnrzM-5">
                    <mxGeometry relative="1" as="geometry">
                        <Array as="points">
                            <mxPoint x="-767" y="480"/>
                            <mxPoint x="-277" y="480"/>
                            <mxPoint x="-37" y="480"/>
                        </Array>
                    </mxGeometry>
                </mxCell>
                <mxCell id="Jp9aZT3gNlFX39lGnrzM-19" style="edgeStyle=none;sketch=1;html=1;exitX=0.5;exitY=1;exitDx=0;exitDy=0;fontSize=14;entryX=0.5;entryY=1;entryDx=0;entryDy=0;" edge="1" parent="1" source="Jp9aZT3gNlFX39lGnrzM-2" target="Jp9aZT3gNlFX39lGnrzM-4">
                    <mxGeometry relative="1" as="geometry">
                        <mxPoint x="-287" y="290" as="targetPoint"/>
                        <Array as="points">
                            <mxPoint x="-767" y="480"/>
                            <mxPoint x="-287" y="480"/>
                        </Array>
                    </mxGeometry>
                </mxCell>
                <mxCell id="Jp9aZT3gNlFX39lGnrzM-2" value="普通认证" style="rounded=0;whiteSpace=wrap;html=1;sketch=1;fontSize=14;" vertex="1" parent="1">
                    <mxGeometry x="-827" y="220" width="120" height="60" as="geometry"/>
                </mxCell>
                <mxCell id="Jp9aZT3gNlFX39lGnrzM-10" style="edgeStyle=none;sketch=1;html=1;exitX=1;exitY=0.5;exitDx=0;exitDy=0;entryX=0;entryY=0.5;entryDx=0;entryDy=0;fontSize=14;" edge="1" parent="1" source="Jp9aZT3gNlFX39lGnrzM-3" target="Jp9aZT3gNlFX39lGnrzM-4">
                    <mxGeometry relative="1" as="geometry"/>
                </mxCell>
                <mxCell id="Jp9aZT3gNlFX39lGnrzM-3" value="高级认证" style="rounded=0;whiteSpace=wrap;html=1;sketch=1;fontSize=14;" vertex="1" parent="1">
                    <mxGeometry x="-597" y="220" width="120" height="60" as="geometry"/>
                </mxCell>
                <mxCell id="Jp9aZT3gNlFX39lGnrzM-11" style="edgeStyle=none;sketch=1;html=1;exitX=1;exitY=0.5;exitDx=0;exitDy=0;entryX=0;entryY=0.5;entryDx=0;entryDy=0;fontSize=14;" edge="1" parent="1" source="Jp9aZT3gNlFX39lGnrzM-4" target="Jp9aZT3gNlFX39lGnrzM-5">
                    <mxGeometry relative="1" as="geometry"/>
                </mxCell>
                <mxCell id="Jp9aZT3gNlFX39lGnrzM-4" value="超级认证" style="rounded=0;whiteSpace=wrap;html=1;sketch=1;fontSize=14;" vertex="1" parent="1">
                    <mxGeometry x="-347" y="220" width="120" height="60" as="geometry"/>
                </mxCell>
                <mxCell id="Jp9aZT3gNlFX39lGnrzM-5" value="至尊认证" style="rounded=0;whiteSpace=wrap;html=1;sketch=1;fontSize=14;" vertex="1" parent="1">
                    <mxGeometry x="-97" y="220" width="120" height="60" as="geometry"/>
                </mxCell>
                <mxCell id="Jp9aZT3gNlFX39lGnrzM-15" value="升级" style="text;html=1;strokeColor=none;fillColor=none;align=center;verticalAlign=middle;whiteSpace=wrap;rounded=0;sketch=1;fontSize=14;" vertex="1" parent="1">
                    <mxGeometry x="-677" y="210" width="40" height="20" as="geometry"/>
                </mxCell>
                <mxCell id="Jp9aZT3gNlFX39lGnrzM-16" value="升级" style="text;html=1;strokeColor=none;fillColor=none;align=center;verticalAlign=middle;whiteSpace=wrap;rounded=0;sketch=1;fontSize=14;" vertex="1" parent="1">
                    <mxGeometry x="-427" y="210" width="40" height="20" as="geometry"/>
                </mxCell>
                <mxCell id="Jp9aZT3gNlFX39lGnrzM-17" value="升级" style="text;html=1;strokeColor=none;fillColor=none;align=center;verticalAlign=middle;whiteSpace=wrap;rounded=0;sketch=1;fontSize=14;" vertex="1" parent="1">
                    <mxGeometry x="-177" y="210" width="40" height="20" as="geometry"/>
                </mxCell>
                <mxCell id="Jp9aZT3gNlFX39lGnrzM-20" value="升级" style="text;html=1;strokeColor=none;fillColor=none;align=center;verticalAlign=middle;whiteSpace=wrap;rounded=0;sketch=1;fontSize=14;" vertex="1" parent="1">
                    <mxGeometry x="-267" y="370" width="40" height="20" as="geometry"/>
                </mxCell>
                <mxCell id="Jp9aZT3gNlFX39lGnrzM-22" value="升级" style="text;html=1;strokeColor=none;fillColor=none;align=center;verticalAlign=middle;whiteSpace=wrap;rounded=0;sketch=1;fontSize=14;" vertex="1" parent="1">
                    <mxGeometry x="-527" y="360" width="40" height="20" as="geometry"/>
                </mxCell>
                <mxCell id="Jp9aZT3gNlFX39lGnrzM-24" value="" style="endArrow=none;html=1;fontSize=14;entryX=0.5;entryY=1;entryDx=0;entryDy=0;" edge="1" parent="1" target="Jp9aZT3gNlFX39lGnrzM-3">
                    <mxGeometry width="50" height="50" relative="1" as="geometry">
                        <mxPoint x="-537" y="480" as="sourcePoint"/>
                        <mxPoint x="-437" y="300" as="targetPoint"/>
                    </mxGeometry>
                </mxCell>
                <mxCell id="Jp9aZT3gNlFX39lGnrzM-47" style="edgeStyle=none;sketch=1;html=1;exitX=0.5;exitY=1;exitDx=0;exitDy=0;entryX=0.5;entryY=0;entryDx=0;entryDy=0;fontSize=14;" edge="1" parent="1" source="Jp9aZT3gNlFX39lGnrzM-31" target="Jp9aZT3gNlFX39lGnrzM-34">
                    <mxGeometry relative="1" as="geometry"/>
                </mxCell>
                <mxCell id="Jp9aZT3gNlFX39lGnrzM-31" value="名片认证" style="rounded=0;whiteSpace=wrap;html=1;sketch=1;fontSize=14;" vertex="1" parent="1">
                    <mxGeometry x="285" y="1350" width="120" height="60" as="geometry"/>
                </mxCell>
                <mxCell id="Jp9aZT3gNlFX39lGnrzM-32" value="升级" style="text;html=1;strokeColor=none;fillColor=none;align=center;verticalAlign=middle;whiteSpace=wrap;rounded=0;sketch=1;fontSize=14;" vertex="1" parent="1">
                    <mxGeometry x="-27" y="370" width="40" height="20" as="geometry"/>
                </mxCell>
                <mxCell id="Jp9aZT3gNlFX39lGnrzM-48" style="edgeStyle=none;sketch=1;html=1;exitX=0.5;exitY=1;exitDx=0;exitDy=0;entryX=0.5;entryY=0;entryDx=0;entryDy=0;fontSize=14;" edge="1" parent="1" source="Jp9aZT3gNlFX39lGnrzM-34" target="Jp9aZT3gNlFX39lGnrzM-35">
                    <mxGeometry relative="1" as="geometry">
                        <Array as="points">
                            <mxPoint x="345" y="1580"/>
                            <mxPoint x="-495" y="1580"/>
                        </Array>
                    </mxGeometry>
                </mxCell>
                <mxCell id="Jp9aZT3gNlFX39lGnrzM-50" style="edgeStyle=none;sketch=1;html=1;exitX=0.5;exitY=1;exitDx=0;exitDy=0;entryX=0.5;entryY=0;entryDx=0;entryDy=0;fontSize=14;" edge="1" parent="1" source="Jp9aZT3gNlFX39lGnrzM-34" target="Jp9aZT3gNlFX39lGnrzM-36">
                    <mxGeometry relative="1" as="geometry">
                        <Array as="points">
                            <mxPoint x="345" y="1580"/>
                            <mxPoint x="-325" y="1580"/>
                        </Array>
                    </mxGeometry>
                </mxCell>
                <mxCell id="Jp9aZT3gNlFX39lGnrzM-51" style="edgeStyle=none;sketch=1;html=1;exitX=0.5;exitY=1;exitDx=0;exitDy=0;entryX=0.5;entryY=0;entryDx=0;entryDy=0;fontSize=14;" edge="1" parent="1" source="Jp9aZT3gNlFX39lGnrzM-34" target="Jp9aZT3gNlFX39lGnrzM-37">
                    <mxGeometry relative="1" as="geometry">
                        <Array as="points">
                            <mxPoint x="345" y="1580"/>
                            <mxPoint x="-148" y="1580"/>
                        </Array>
                    </mxGeometry>
                </mxCell>
                <mxCell id="Jp9aZT3gNlFX39lGnrzM-52" style="edgeStyle=none;sketch=1;html=1;exitX=0.5;exitY=1;exitDx=0;exitDy=0;entryX=0.5;entryY=0;entryDx=0;entryDy=0;fontSize=14;" edge="1" parent="1" source="Jp9aZT3gNlFX39lGnrzM-34" target="Jp9aZT3gNlFX39lGnrzM-44">
                    <mxGeometry relative="1" as="geometry">
                        <Array as="points">
                            <mxPoint x="345" y="1580"/>
                            <mxPoint x="1175" y="1580"/>
                        </Array>
                    </mxGeometry>
                </mxCell>
                <mxCell id="Jp9aZT3gNlFX39lGnrzM-54" style="edgeStyle=none;sketch=1;html=1;exitX=0.5;exitY=1;exitDx=0;exitDy=0;entryX=0.5;entryY=0;entryDx=0;entryDy=0;fontSize=14;" edge="1" parent="1" source="Jp9aZT3gNlFX39lGnrzM-34" target="Jp9aZT3gNlFX39lGnrzM-43">
                    <mxGeometry relative="1" as="geometry">
                        <Array as="points">
                            <mxPoint x="345" y="1580"/>
                            <mxPoint x="1015" y="1580"/>
                        </Array>
                    </mxGeometry>
                </mxCell>
                <mxCell id="Jp9aZT3gNlFX39lGnrzM-56" style="edgeStyle=none;sketch=1;html=1;exitX=0.5;exitY=1;exitDx=0;exitDy=0;entryX=0.5;entryY=0;entryDx=0;entryDy=0;fontSize=14;" edge="1" parent="1" source="Jp9aZT3gNlFX39lGnrzM-34" target="Jp9aZT3gNlFX39lGnrzM-42">
                    <mxGeometry relative="1" as="geometry">
                        <Array as="points">
                            <mxPoint x="345" y="1580"/>
                            <mxPoint x="845" y="1580"/>
                        </Array>
                    </mxGeometry>
                </mxCell>
                <mxCell id="Jp9aZT3gNlFX39lGnrzM-57" style="edgeStyle=none;sketch=1;html=1;exitX=0.5;exitY=1;exitDx=0;exitDy=0;entryX=0.5;entryY=0;entryDx=0;entryDy=0;fontSize=14;" edge="1" parent="1" source="Jp9aZT3gNlFX39lGnrzM-34" target="Jp9aZT3gNlFX39lGnrzM-41">
                    <mxGeometry relative="1" as="geometry">
                        <Array as="points">
                            <mxPoint x="345" y="1580"/>
                            <mxPoint x="665" y="1580"/>
                        </Array>
                    </mxGeometry>
                </mxCell>
                <mxCell id="Jp9aZT3gNlFX39lGnrzM-59" style="edgeStyle=none;sketch=1;html=1;exitX=1;exitY=0.5;exitDx=0;exitDy=0;entryX=0.5;entryY=0;entryDx=0;entryDy=0;fontSize=14;" edge="1" parent="1" source="Jp9aZT3gNlFX39lGnrzM-34" target="Jp9aZT3gNlFX39lGnrzM-40">
                    <mxGeometry relative="1" as="geometry">
                        <Array as="points">
                            <mxPoint x="475" y="1520"/>
                        </Array>
                    </mxGeometry>
                </mxCell>
                <mxCell id="Jp9aZT3gNlFX39lGnrzM-62" style="edgeStyle=none;sketch=1;html=1;exitX=0.5;exitY=1;exitDx=0;exitDy=0;entryX=0.433;entryY=-0.017;entryDx=0;entryDy=0;entryPerimeter=0;fontSize=14;" edge="1" parent="1" source="Jp9aZT3gNlFX39lGnrzM-34" target="Jp9aZT3gNlFX39lGnrzM-39">
                    <mxGeometry relative="1" as="geometry">
                        <Array as="points">
                            <mxPoint x="345" y="1580"/>
                            <mxPoint x="27" y="1580"/>
                        </Array>
                    </mxGeometry>
                </mxCell>
                <mxCell id="Jp9aZT3gNlFX39lGnrzM-34" value="&lt;span&gt;角色是否是员工&lt;/span&gt;" style="rhombus;whiteSpace=wrap;html=1;sketch=1;fontSize=14;" vertex="1" parent="1">
                    <mxGeometry x="250" y="1480" width="190" height="80" as="geometry"/>
                </mxCell>
                <mxCell id="Jp9aZT3gNlFX39lGnrzM-69" style="edgeStyle=none;sketch=1;html=1;exitX=0.5;exitY=1;exitDx=0;exitDy=0;entryX=0.5;entryY=0;entryDx=0;entryDy=0;fontSize=14;" edge="1" parent="1" source="Jp9aZT3gNlFX39lGnrzM-35" target="Jp9aZT3gNlFX39lGnrzM-64">
                    <mxGeometry relative="1" as="geometry"/>
                </mxCell>
                <mxCell id="Jp9aZT3gNlFX39lGnrzM-35" value="邮箱认证" style="rounded=0;whiteSpace=wrap;html=1;sketch=1;fontSize=14;" vertex="1" parent="1">
                    <mxGeometry x="-555" y="1640" width="120" height="60" as="geometry"/>
                </mxCell>
                <mxCell id="Jp9aZT3gNlFX39lGnrzM-75" style="edgeStyle=none;sketch=1;html=1;entryX=0.5;entryY=0;entryDx=0;entryDy=0;fontSize=14;" edge="1" parent="1" source="Jp9aZT3gNlFX39lGnrzM-36" target="Jp9aZT3gNlFX39lGnrzM-63">
                    <mxGeometry relative="1" as="geometry"/>
                </mxCell>
                <mxCell id="Jp9aZT3gNlFX39lGnrzM-36" value="名片认证" style="rounded=0;whiteSpace=wrap;html=1;sketch=1;fontSize=14;" vertex="1" parent="1">
                    <mxGeometry x="-385" y="1640" width="120" height="60" as="geometry"/>
                </mxCell>
                <mxCell id="Jp9aZT3gNlFX39lGnrzM-71" style="edgeStyle=none;sketch=1;html=1;entryX=0.5;entryY=0;entryDx=0;entryDy=0;fontSize=14;" edge="1" parent="1" source="Jp9aZT3gNlFX39lGnrzM-37" target="Jp9aZT3gNlFX39lGnrzM-64">
                    <mxGeometry relative="1" as="geometry"/>
                </mxCell>
                <mxCell id="Jp9aZT3gNlFX39lGnrzM-37" value="CC名片认证" style="rounded=0;whiteSpace=wrap;html=1;sketch=1;fontSize=14;" vertex="1" parent="1">
                    <mxGeometry x="-208" y="1640" width="120" height="60" as="geometry"/>
                </mxCell>
                <mxCell id="Jp9aZT3gNlFX39lGnrzM-70" style="edgeStyle=none;sketch=1;html=1;entryX=0.5;entryY=0;entryDx=0;entryDy=0;fontSize=14;" edge="1" parent="1" source="Jp9aZT3gNlFX39lGnrzM-38" target="Jp9aZT3gNlFX39lGnrzM-64">
                    <mxGeometry relative="1" as="geometry"/>
                </mxCell>
                <mxCell id="Jp9aZT3gNlFX39lGnrzM-38" value="管理员添加员工&lt;br&gt;（并非用户主动申请，特殊）" style="rounded=0;whiteSpace=wrap;html=1;sketch=1;fontSize=14;" vertex="1" parent="1">
                    <mxGeometry x="175" y="1640" width="120" height="60" as="geometry"/>
                </mxCell>
                <mxCell id="Jp9aZT3gNlFX39lGnrzM-72" style="edgeStyle=none;sketch=1;html=1;entryX=0.5;entryY=0;entryDx=0;entryDy=0;fontSize=14;" edge="1" parent="1" source="Jp9aZT3gNlFX39lGnrzM-39" target="Jp9aZT3gNlFX39lGnrzM-64">
                    <mxGeometry relative="1" as="geometry"/>
                </mxCell>
                <mxCell id="Jp9aZT3gNlFX39lGnrzM-39" value="企业电子名片" style="rounded=0;whiteSpace=wrap;html=1;sketch=1;fontSize=14;" vertex="1" parent="1">
                    <mxGeometry x="-25" y="1640" width="120" height="60" as="geometry"/>
                </mxCell>
                <mxCell id="Jp9aZT3gNlFX39lGnrzM-76" style="edgeStyle=none;sketch=1;html=1;entryX=0.5;entryY=0;entryDx=0;entryDy=0;fontSize=14;" edge="1" parent="1" source="Jp9aZT3gNlFX39lGnrzM-40" target="Jp9aZT3gNlFX39lGnrzM-63">
                    <mxGeometry relative="1" as="geometry"/>
                </mxCell>
                <mxCell id="Jp9aZT3gNlFX39lGnrzM-40" value="身份证" style="rounded=0;whiteSpace=wrap;html=1;sketch=1;fontSize=14;" vertex="1" parent="1">
                    <mxGeometry x="415" y="1640" width="120" height="60" as="geometry"/>
                </mxCell>
                <mxCell id="Jp9aZT3gNlFX39lGnrzM-77" style="edgeStyle=none;sketch=1;html=1;entryX=0.5;entryY=0;entryDx=0;entryDy=0;fontSize=14;" edge="1" parent="1" source="Jp9aZT3gNlFX39lGnrzM-41" target="Jp9aZT3gNlFX39lGnrzM-63">
                    <mxGeometry relative="1" as="geometry"/>
                </mxCell>
                <mxCell id="Jp9aZT3gNlFX39lGnrzM-41" value="工牌" style="rounded=0;whiteSpace=wrap;html=1;sketch=1;fontSize=14;" vertex="1" parent="1">
                    <mxGeometry x="605" y="1640" width="120" height="60" as="geometry"/>
                </mxCell>
                <mxCell id="Jp9aZT3gNlFX39lGnrzM-78" style="edgeStyle=none;sketch=1;html=1;exitX=0.5;exitY=1;exitDx=0;exitDy=0;entryX=0.5;entryY=0;entryDx=0;entryDy=0;fontSize=14;" edge="1" parent="1" source="Jp9aZT3gNlFX39lGnrzM-42" target="Jp9aZT3gNlFX39lGnrzM-63">
                    <mxGeometry relative="1" as="geometry"/>
                </mxCell>
                <mxCell id="Jp9aZT3gNlFX39lGnrzM-42" value="营业执照" style="rounded=0;whiteSpace=wrap;html=1;sketch=1;fontSize=14;" vertex="1" parent="1">
                    <mxGeometry x="785" y="1640" width="120" height="60" as="geometry"/>
                </mxCell>
                <mxCell id="Jp9aZT3gNlFX39lGnrzM-81" style="edgeStyle=none;sketch=1;html=1;exitX=0.5;exitY=1;exitDx=0;exitDy=0;entryX=0.5;entryY=0;entryDx=0;entryDy=0;fontSize=14;" edge="1" parent="1" source="Jp9aZT3gNlFX39lGnrzM-43" target="Jp9aZT3gNlFX39lGnrzM-63">
                    <mxGeometry relative="1" as="geometry"/>
                </mxCell>
                <mxCell id="Jp9aZT3gNlFX39lGnrzM-43" value="社保记录" style="rounded=0;whiteSpace=wrap;html=1;sketch=1;fontSize=14;" vertex="1" parent="1">
                    <mxGeometry x="955" y="1640" width="120" height="60" as="geometry"/>
                </mxCell>
                <mxCell id="Jp9aZT3gNlFX39lGnrzM-80" style="edgeStyle=none;sketch=1;html=1;entryX=0.5;entryY=0;entryDx=0;entryDy=0;fontSize=14;" edge="1" parent="1" source="Jp9aZT3gNlFX39lGnrzM-44" target="Jp9aZT3gNlFX39lGnrzM-63">
                    <mxGeometry relative="1" as="geometry"/>
                </mxCell>
                <mxCell id="Jp9aZT3gNlFX39lGnrzM-44" value="员工申请加入" style="rounded=0;whiteSpace=wrap;html=1;sketch=1;fontSize=14;" vertex="1" parent="1">
                    <mxGeometry x="1115" y="1640" width="120" height="60" as="geometry"/>
                </mxCell>
                <mxCell id="Jp9aZT3gNlFX39lGnrzM-49" value="True" style="text;html=1;strokeColor=none;fillColor=none;align=center;verticalAlign=middle;whiteSpace=wrap;rounded=0;sketch=1;fontSize=14;" vertex="1" parent="1">
                    <mxGeometry x="75" y="1550" width="40" height="20" as="geometry"/>
                </mxCell>
                <mxCell id="Jp9aZT3gNlFX39lGnrzM-53" value="True" style="text;html=1;strokeColor=none;fillColor=none;align=center;verticalAlign=middle;whiteSpace=wrap;rounded=0;sketch=1;fontSize=14;" vertex="1" parent="1">
                    <mxGeometry x="665" y="1550" width="40" height="20" as="geometry"/>
                </mxCell>
                <mxCell id="Jp9aZT3gNlFX39lGnrzM-60" value="False" style="text;html=1;strokeColor=none;fillColor=none;align=center;verticalAlign=middle;whiteSpace=wrap;rounded=0;sketch=1;fontSize=14;" vertex="1" parent="1">
                    <mxGeometry x="475" y="1530" width="40" height="20" as="geometry"/>
                </mxCell>
                <mxCell id="Jp9aZT3gNlFX39lGnrzM-83" style="edgeStyle=none;sketch=1;html=1;entryX=1;entryY=0.5;entryDx=0;entryDy=0;fontSize=14;" edge="1" parent="1" source="Jp9aZT3gNlFX39lGnrzM-63" target="Jp9aZT3gNlFX39lGnrzM-64">
                    <mxGeometry relative="1" as="geometry"/>
                </mxCell>
                <mxCell id="Jp9aZT3gNlFX39lGnrzM-89" style="edgeStyle=none;sketch=1;html=1;fontSize=14;" edge="1" parent="1" source="Jp9aZT3gNlFX39lGnrzM-63">
                    <mxGeometry relative="1" as="geometry">
                        <mxPoint x="885" y="2060" as="targetPoint"/>
                    </mxGeometry>
                </mxCell>
                <mxCell id="Jp9aZT3gNlFX39lGnrzM-63" value="认证中" style="rounded=0;whiteSpace=wrap;html=1;sketch=1;fontSize=14;" vertex="1" parent="1">
                    <mxGeometry x="499" y="2050" width="120" height="60" as="geometry"/>
                </mxCell>
                <mxCell id="Jp9aZT3gNlFX39lGnrzM-96" style="edgeStyle=none;sketch=1;html=1;entryX=1;entryY=0.5;entryDx=0;entryDy=0;fontSize=14;" edge="1" parent="1" source="Jp9aZT3gNlFX39lGnrzM-64" target="Jp9aZT3gNlFX39lGnrzM-67">
                    <mxGeometry relative="1" as="geometry"/>
                </mxCell>
                <mxCell id="Jp9aZT3gNlFX39lGnrzM-64" value="已认证" style="rounded=0;whiteSpace=wrap;html=1;sketch=1;fontSize=14;" vertex="1" parent="1">
                    <mxGeometry x="-235" y="2050" width="120" height="60" as="geometry"/>
                </mxCell>
                <mxCell id="Jp9aZT3gNlFX39lGnrzM-90" style="edgeStyle=none;sketch=1;html=1;entryX=1;entryY=0.75;entryDx=0;entryDy=0;fontSize=14;" edge="1" parent="1" source="Jp9aZT3gNlFX39lGnrzM-65" target="Jp9aZT3gNlFX39lGnrzM-63">
                    <mxGeometry relative="1" as="geometry"/>
                </mxCell>
                <mxCell id="Jp9aZT3gNlFX39lGnrzM-65" value="认证失败" style="rounded=0;whiteSpace=wrap;html=1;sketch=1;fontSize=14;" vertex="1" parent="1">
                    <mxGeometry x="885" y="2050" width="120" height="60" as="geometry"/>
                </mxCell>
                <mxCell id="Jp9aZT3gNlFX39lGnrzM-67" value="已解除认证" style="rounded=0;whiteSpace=wrap;html=1;sketch=1;fontSize=14;" vertex="1" parent="1">
                    <mxGeometry x="-575" y="2050" width="120" height="60" as="geometry"/>
                </mxCell>
                <mxCell id="Jp9aZT3gNlFX39lGnrzM-74" value="无需审核直接通过认证，认证状态变更为 已认证" style="text;html=1;strokeColor=none;fillColor=none;align=center;verticalAlign=middle;whiteSpace=wrap;rounded=0;sketch=1;fontSize=14;" vertex="1" parent="1">
                    <mxGeometry x="-345" y="1839" width="340" height="70" as="geometry"/>
                </mxCell>
                <mxCell id="Jp9aZT3gNlFX39lGnrzM-82" value="提交相应认证材料等待审核，认证状态变更为 认证中" style="text;html=1;strokeColor=none;fillColor=none;align=center;verticalAlign=middle;whiteSpace=wrap;rounded=0;sketch=1;fontSize=14;" vertex="1" parent="1">
                    <mxGeometry x="335" y="1850" width="400" height="60" as="geometry"/>
                </mxCell>
                <mxCell id="Jp9aZT3gNlFX39lGnrzM-84" value="OPS 审核通过" style="text;html=1;strokeColor=none;fillColor=none;align=center;verticalAlign=middle;whiteSpace=wrap;rounded=0;sketch=1;fontSize=14;" vertex="1" parent="1">
                    <mxGeometry x="-5" y="2020" width="400" height="60" as="geometry"/>
                </mxCell>
                <mxCell id="Jp9aZT3gNlFX39lGnrzM-86" value="OPS 审核拒绝" style="text;html=1;strokeColor=none;fillColor=none;align=center;verticalAlign=middle;whiteSpace=wrap;rounded=0;sketch=1;fontSize=14;" vertex="1" parent="1">
                    <mxGeometry x="565" y="2010" width="400" height="60" as="geometry"/>
                </mxCell>
                <mxCell id="Jp9aZT3gNlFX39lGnrzM-91" value="重新提交认证" style="text;html=1;strokeColor=none;fillColor=none;align=center;verticalAlign=middle;whiteSpace=wrap;rounded=0;sketch=1;fontSize=14;" vertex="1" parent="1">
                    <mxGeometry x="575" y="2080" width="400" height="60" as="geometry"/>
                </mxCell>
                <mxCell id="Jp9aZT3gNlFX39lGnrzM-94" value="用户或者OPS解除认证" style="text;html=1;strokeColor=none;fillColor=none;align=center;verticalAlign=middle;whiteSpace=wrap;rounded=0;sketch=1;fontSize=14;" vertex="1" parent="1">
                    <mxGeometry x="-555" y="2030" width="400" height="60" as="geometry"/>
                </mxCell>
                <mxCell id="Jp9aZT3gNlFX39lGnrzM-110" style="edgeStyle=none;sketch=1;html=1;entryX=0.5;entryY=0;entryDx=0;entryDy=0;fontSize=14;" edge="1" parent="1" source="Jp9aZT3gNlFX39lGnrzM-97" target="Jp9aZT3gNlFX39lGnrzM-103">
                    <mxGeometry relative="1" as="geometry"/>
                </mxCell>
                <mxCell id="Jp9aZT3gNlFX39lGnrzM-97" value="普通认证" style="rounded=0;whiteSpace=wrap;html=1;sketch=1;fontSize=14;" vertex="1" parent="1">
                    <mxGeometry x="530" y="20" width="120" height="60" as="geometry"/>
                </mxCell>
                <mxCell id="Jp9aZT3gNlFX39lGnrzM-105" style="edgeStyle=none;sketch=1;html=1;entryX=0.5;entryY=0;entryDx=0;entryDy=0;fontSize=14;" edge="1" parent="1" source="Jp9aZT3gNlFX39lGnrzM-100" target="Jp9aZT3gNlFX39lGnrzM-104">
                    <mxGeometry relative="1" as="geometry"/>
                </mxCell>
                <mxCell id="Jp9aZT3gNlFX39lGnrzM-100" value="高级认证" style="rounded=0;whiteSpace=wrap;html=1;sketch=1;fontSize=14;" vertex="1" parent="1">
                    <mxGeometry x="880" y="20" width="120" height="60" as="geometry"/>
                </mxCell>
                <mxCell id="Jp9aZT3gNlFX39lGnrzM-106" style="edgeStyle=none;sketch=1;html=1;exitX=0.5;exitY=1;exitDx=0;exitDy=0;entryX=0.5;entryY=0;entryDx=0;entryDy=0;fontSize=14;startArrow=none;" edge="1" parent="1" source="Jp9aZT3gNlFX39lGnrzM-108" target="Jp9aZT3gNlFX39lGnrzM-104">
                    <mxGeometry relative="1" as="geometry"/>
                </mxCell>
                <mxCell id="Jp9aZT3gNlFX39lGnrzM-101" value="超级认证" style="rounded=0;whiteSpace=wrap;html=1;sketch=1;fontSize=14;" vertex="1" parent="1">
                    <mxGeometry x="1085" y="20" width="120" height="60" as="geometry"/>
                </mxCell>
                <mxCell id="Jp9aZT3gNlFX39lGnrzM-107" style="edgeStyle=none;sketch=1;html=1;exitX=0.5;exitY=1;exitDx=0;exitDy=0;entryX=0.5;entryY=0;entryDx=0;entryDy=0;fontSize=14;" edge="1" parent="1" source="Jp9aZT3gNlFX39lGnrzM-102" target="Jp9aZT3gNlFX39lGnrzM-104">
                    <mxGeometry relative="1" as="geometry"/>
                </mxCell>
                <mxCell id="Jp9aZT3gNlFX39lGnrzM-102" value="至尊认证" style="rounded=0;whiteSpace=wrap;html=1;sketch=1;fontSize=14;" vertex="1" parent="1">
                    <mxGeometry x="1275" y="20" width="120" height="60" as="geometry"/>
                </mxCell>
                <mxCell id="Jp9aZT3gNlFX39lGnrzM-121" style="edgeStyle=none;sketch=1;html=1;exitX=0.5;exitY=1;exitDx=0;exitDy=0;entryX=0.5;entryY=0;entryDx=0;entryDy=0;fontSize=14;" edge="1" parent="1" source="Jp9aZT3gNlFX39lGnrzM-103" target="Jp9aZT3gNlFX39lGnrzM-118">
                    <mxGeometry relative="1" as="geometry"/>
                </mxCell>
                <mxCell id="Jp9aZT3gNlFX39lGnrzM-122" style="edgeStyle=none;sketch=1;html=1;exitX=0.5;exitY=1;exitDx=0;exitDy=0;entryX=0.5;entryY=0;entryDx=0;entryDy=0;fontSize=14;" edge="1" parent="1" source="Jp9aZT3gNlFX39lGnrzM-103" target="Jp9aZT3gNlFX39lGnrzM-119">
                    <mxGeometry relative="1" as="geometry"/>
                </mxCell>
                <mxCell id="Jp9aZT3gNlFX39lGnrzM-103" value="认证中" style="rounded=0;whiteSpace=wrap;html=1;sketch=1;fontSize=14;" vertex="1" parent="1">
                    <mxGeometry x="530" y="230" width="120" height="60" as="geometry"/>
                </mxCell>
                <mxCell id="Jp9aZT3gNlFX39lGnrzM-115" style="edgeStyle=none;sketch=1;html=1;entryX=1;entryY=0.5;entryDx=0;entryDy=0;fontSize=14;" edge="1" parent="1" source="Jp9aZT3gNlFX39lGnrzM-104" target="Jp9aZT3gNlFX39lGnrzM-114">
                    <mxGeometry relative="1" as="geometry"/>
                </mxCell>
                <mxCell id="Jp9aZT3gNlFX39lGnrzM-131" style="edgeStyle=none;sketch=1;html=1;entryX=0.5;entryY=0;entryDx=0;entryDy=0;fontSize=14;" edge="1" parent="1" source="Jp9aZT3gNlFX39lGnrzM-104" target="Jp9aZT3gNlFX39lGnrzM-130">
                    <mxGeometry relative="1" as="geometry"/>
                </mxCell>
                <mxCell id="Jp9aZT3gNlFX39lGnrzM-104" value="待支付" style="rounded=0;whiteSpace=wrap;html=1;sketch=1;fontSize=14;" vertex="1" parent="1">
                    <mxGeometry x="1085" y="230" width="120" height="60" as="geometry"/>
                </mxCell>
                <mxCell id="Jp9aZT3gNlFX39lGnrzM-108" value="发起企业认证" style="text;html=1;strokeColor=none;fillColor=none;align=center;verticalAlign=middle;whiteSpace=wrap;rounded=0;sketch=1;fontSize=14;" vertex="1" parent="1">
                    <mxGeometry x="1085" y="130" width="120" height="50" as="geometry"/>
                </mxCell>
                <mxCell id="Jp9aZT3gNlFX39lGnrzM-109" value="" style="edgeStyle=none;sketch=1;html=1;exitX=0.5;exitY=1;exitDx=0;exitDy=0;entryX=0.5;entryY=0;entryDx=0;entryDy=0;fontSize=14;endArrow=none;" edge="1" parent="1" source="Jp9aZT3gNlFX39lGnrzM-101" target="Jp9aZT3gNlFX39lGnrzM-108">
                    <mxGeometry relative="1" as="geometry">
                        <mxPoint x="1145" y="80" as="sourcePoint"/>
                        <mxPoint x="1145" y="230" as="targetPoint"/>
                    </mxGeometry>
                </mxCell>
                <mxCell id="Jp9aZT3gNlFX39lGnrzM-111" value="提交材料" style="text;html=1;strokeColor=none;fillColor=none;align=center;verticalAlign=middle;whiteSpace=wrap;rounded=0;sketch=1;fontSize=14;" vertex="1" parent="1">
                    <mxGeometry x="590" y="130" width="120" height="50" as="geometry"/>
                </mxCell>
                <mxCell id="Jp9aZT3gNlFX39lGnrzM-113" value="支付成功" style="text;html=1;strokeColor=none;fillColor=none;align=center;verticalAlign=middle;whiteSpace=wrap;rounded=0;sketch=1;fontSize=14;" vertex="1" parent="1">
                    <mxGeometry x="935" y="210" width="120" height="50" as="geometry"/>
                </mxCell>
                <mxCell id="Jp9aZT3gNlFX39lGnrzM-116" style="edgeStyle=none;sketch=1;html=1;entryX=1;entryY=0.5;entryDx=0;entryDy=0;fontSize=14;" edge="1" parent="1" source="Jp9aZT3gNlFX39lGnrzM-114" target="Jp9aZT3gNlFX39lGnrzM-103">
                    <mxGeometry relative="1" as="geometry"/>
                </mxCell>
                <mxCell id="Jp9aZT3gNlFX39lGnrzM-114" value="待认证" style="rounded=0;whiteSpace=wrap;html=1;sketch=1;fontSize=14;" vertex="1" parent="1">
                    <mxGeometry x="795" y="230" width="120" height="60" as="geometry"/>
                </mxCell>
                <mxCell id="Jp9aZT3gNlFX39lGnrzM-117" value="提交材料" style="text;html=1;strokeColor=none;fillColor=none;align=center;verticalAlign=middle;whiteSpace=wrap;rounded=0;sketch=1;fontSize=14;" vertex="1" parent="1">
                    <mxGeometry x="660" y="210" width="120" height="50" as="geometry"/>
                </mxCell>
                <mxCell id="Jp9aZT3gNlFX39lGnrzM-128" style="edgeStyle=none;sketch=1;html=1;entryX=0.5;entryY=0;entryDx=0;entryDy=0;fontSize=14;" edge="1" parent="1" source="Jp9aZT3gNlFX39lGnrzM-118" target="Jp9aZT3gNlFX39lGnrzM-127">
                    <mxGeometry relative="1" as="geometry"/>
                </mxCell>
                <mxCell id="Jp9aZT3gNlFX39lGnrzM-118" value="已认证" style="rounded=0;whiteSpace=wrap;html=1;sketch=1;fontSize=14;" vertex="1" parent="1">
                    <mxGeometry x="440" y="460" width="120" height="60" as="geometry"/>
                </mxCell>
                <mxCell id="Jp9aZT3gNlFX39lGnrzM-125" style="edgeStyle=none;sketch=1;html=1;entryX=1;entryY=1;entryDx=0;entryDy=0;fontSize=14;" edge="1" parent="1" source="Jp9aZT3gNlFX39lGnrzM-119" target="Jp9aZT3gNlFX39lGnrzM-103">
                    <mxGeometry relative="1" as="geometry">
                        <Array as="points">
                            <mxPoint x="840" y="500"/>
                            <mxPoint x="840" y="360"/>
                        </Array>
                    </mxGeometry>
                </mxCell>
                <mxCell id="Jp9aZT3gNlFX39lGnrzM-119" value="认证失败" style="rounded=0;whiteSpace=wrap;html=1;sketch=1;fontSize=14;" vertex="1" parent="1">
                    <mxGeometry x="650" y="460" width="120" height="60" as="geometry"/>
                </mxCell>
                <mxCell id="Jp9aZT3gNlFX39lGnrzM-123" value="OPS审核成功" style="text;html=1;strokeColor=none;fillColor=none;align=center;verticalAlign=middle;whiteSpace=wrap;rounded=0;sketch=1;fontSize=14;" vertex="1" parent="1">
                    <mxGeometry x="410" y="340" width="120" height="50" as="geometry"/>
                </mxCell>
                <mxCell id="Jp9aZT3gNlFX39lGnrzM-124" value="OPS审核失败" style="text;html=1;strokeColor=none;fillColor=none;align=center;verticalAlign=middle;whiteSpace=wrap;rounded=0;sketch=1;fontSize=14;" vertex="1" parent="1">
                    <mxGeometry x="590" y="390" width="120" height="50" as="geometry"/>
                </mxCell>
                <mxCell id="Jp9aZT3gNlFX39lGnrzM-126" value="重新提交认证" style="text;html=1;strokeColor=none;fillColor=none;align=center;verticalAlign=middle;whiteSpace=wrap;rounded=0;sketch=1;fontSize=14;" vertex="1" parent="1">
                    <mxGeometry x="845" y="390" width="120" height="50" as="geometry"/>
                </mxCell>
                <mxCell id="Jp9aZT3gNlFX39lGnrzM-127" value="已解除认证" style="rounded=0;whiteSpace=wrap;html=1;sketch=1;fontSize=14;" vertex="1" parent="1">
                    <mxGeometry x="440" y="670" width="120" height="60" as="geometry"/>
                </mxCell>
                <mxCell id="Jp9aZT3gNlFX39lGnrzM-129" value="用户或OPS解除认证" style="text;html=1;strokeColor=none;fillColor=none;align=center;verticalAlign=middle;whiteSpace=wrap;rounded=0;sketch=1;fontSize=14;" vertex="1" parent="1">
                    <mxGeometry x="500" y="585" width="160" height="50" as="geometry"/>
                </mxCell>
                <mxCell id="Jp9aZT3gNlFX39lGnrzM-130" value="已取消" style="rounded=0;whiteSpace=wrap;html=1;sketch=1;fontSize=14;" vertex="1" parent="1">
                    <mxGeometry x="1085" y="460" width="120" height="60" as="geometry"/>
                </mxCell>
                <mxCell id="Jp9aZT3gNlFX39lGnrzM-132" value="超时未支付" style="text;html=1;strokeColor=none;fillColor=none;align=center;verticalAlign=middle;whiteSpace=wrap;rounded=0;sketch=1;fontSize=14;" vertex="1" parent="1">
                    <mxGeometry x="1150" y="345" width="120" height="50" as="geometry"/>
                </mxCell>
                <mxCell id="Jp9aZT3gNlFX39lGnrzM-135" style="edgeStyle=none;sketch=1;html=1;entryX=1;entryY=0.5;entryDx=0;entryDy=0;fontSize=14;" edge="1" parent="1" source="Jp9aZT3gNlFX39lGnrzM-133" target="Jp9aZT3gNlFX39lGnrzM-130">
                    <mxGeometry relative="1" as="geometry"/>
                </mxCell>
                <mxCell id="Jp9aZT3gNlFX39lGnrzM-133" value="用户主动退款" style="text;html=1;strokeColor=none;fillColor=none;align=center;verticalAlign=middle;whiteSpace=wrap;rounded=0;sketch=1;fontSize=14;" vertex="1" parent="1">
                    <mxGeometry x="1410" y="465" width="120" height="50" as="geometry"/>
                </mxCell>
            </root>
        </mxGraphModel>
    </diagram>
</mxfile>